<?xml version="1.0" standalone="no"?>
<!DOCTYPE svg PUBLIC "-//W3C//DTD SVG 20010904//EN"
 "http://www.w3.org/TR/2001/REC-SVG-20010904/DTD/svg10.dtd">
<svg version="1.0" xmlns="http://www.w3.org/2000/svg"
 width="1026.000000pt" height="1026.000000pt" viewBox="0 0 1026.000000 1026.000000"
 preserveAspectRatio="xMidYMid meet">

<g transform="translate(0.000000,1026.000000) scale(0.100000,-0.100000)"
fill="#000000" stroke="none">
<path d="M650 9937 c-164 -56 -285 -181 -334 -346 -24 -80 -24 -1205 -1 -1296
45 -173 190 -313 373 -360 84 -22 1181 -22 1265 0 185 48 324 187 372 372 22
86 22 1181 0 1268 -35 136 -116 245 -234 315 -119 70 -114 70 -781 70 -588 -1
-596 -1 -660 -23z m1161 -285 c111 -44 176 -110 221 -221 23 -55 23 -61 23
-491 0 -429 0 -436 -23 -491 -43 -107 -114 -177 -223 -222 -52 -21 -70 -22
-449 -25 -436 -4 -490 1 -583 50 -72 39 -120 92 -161 177 l-31 66 -3 398 c-4
433 1 499 44 584 49 96 156 173 266 192 29 5 235 8 458 7 395 -1 406 -2 461
-24z"/>
<path d="M1085 9375 c-5 -2 -27 -6 -48 -10 -45 -7 -100 -53 -130 -109 -21 -39
-22 -52 -22 -316 0 -249 2 -278 19 -310 26 -49 55 -79 101 -103 37 -20 58 -22
277 -25 153 -3 256 0 291 8 72 15 128 56 158 117 23 45 24 60 27 273 2 136 -1
249 -7 285 -14 75 -52 132 -111 165 -44 25 -49 25 -295 27 -137 1 -254 1 -260
-2z"/>
<path d="M8279 9941 c-173 -55 -312 -207 -348 -379 -7 -35 -11 -246 -11 -625
0 -475 3 -583 15 -630 48 -185 187 -324 372 -372 84 -22 1181 -22 1265 0 188
49 336 196 377 375 7 28 11 265 11 630 0 635 -1 643 -56 751 -54 108 -180 212
-302 249 -61 19 -93 20 -666 19 -550 0 -606 -2 -657 -18z m1081 -272 c129 -21
245 -111 292 -227 23 -57 23 -61 23 -502 l0 -445 -32 -67 c-56 -120 -156 -196
-284 -218 -43 -7 -199 -10 -459 -8 -379 3 -397 4 -449 25 -111 45 -180 114
-223 221 -21 55 -22 71 -26 437 -2 221 1 411 6 453 12 86 47 165 97 221 43 47
141 99 211 110 73 13 768 13 844 0z"/>
<path d="M8680 9371 c-75 -16 -126 -57 -157 -126 -14 -33 -18 -78 -21 -265 -2
-138 0 -249 7 -285 15 -79 53 -133 116 -165 50 -25 52 -25 320 -25 244 0 273
2 305 19 49 26 79 55 103 101 21 38 22 53 22 315 0 263 -1 277 -22 315 -26 48
-67 89 -108 106 -34 15 -506 23 -565 10z"/>
<path d="M3594 9931 c-32 -20 -64 -74 -64 -111 0 -37 30 -89 65 -110 66 -41
151 -16 185 54 25 52 25 60 0 111 -35 71 -119 97 -186 56z"/>
<path d="M3904 9940 c-11 -4 -33 -22 -47 -40 -21 -25 -27 -42 -27 -81 0 -42 5
-55 33 -85 28 -30 42 -37 83 -41 65 -6 113 24 134 85 13 37 13 47 0 84 -25 71
-105 107 -176 78z"/>
<path d="M4472 9930 c-34 -21 -62 -71 -62 -111 0 -11 8 -37 17 -56 51 -108
209 -90 245 28 9 32 8 44 -10 81 -37 75 -120 101 -190 58z"/>
<path d="M5059 9927 c-41 -27 -59 -60 -59 -107 0 -69 61 -130 130 -130 94 0
159 106 117 190 -18 37 -74 70 -117 70 -22 0 -51 -9 -71 -23z"/>
<path d="M5647 9932 c-15 -9 -37 -37 -49 -60 -18 -37 -19 -49 -10 -81 36 -118
194 -136 245 -28 21 43 21 67 3 112 -28 67 -126 96 -189 57z"/>
<path d="M5939 9927 c-46 -31 -61 -62 -56 -120 11 -124 172 -161 237 -54 72
117 -68 251 -181 174z"/>
<path d="M6230 9928 c-50 -34 -70 -93 -50 -150 21 -61 69 -91 134 -85 41 4 55
11 83 41 28 30 33 43 33 86 0 43 -5 56 -33 86 -28 30 -42 37 -83 41 -40 4 -55
0 -84 -19z"/>
<path d="M6530 9933 c-35 -24 -48 -42 -61 -85 -10 -31 -9 -42 9 -80 37 -75
118 -100 187 -58 35 21 65 73 65 110 0 37 -32 91 -64 111 -39 24 -104 24 -136
2z"/>
<path d="M6824 9931 c-47 -29 -64 -59 -64 -113 0 -129 173 -176 240 -65 70
114 -63 247 -176 178z"/>
<path d="M7403 9929 c-109 -69 -58 -239 72 -239 95 0 160 99 120 184 -34 71
-126 97 -192 55z"/>
<path d="M3311 9643 c-104 -51 -87 -211 26 -242 35 -10 86 0 113 22 76 60 61
187 -25 223 -44 18 -72 17 -114 -3z"/>
<path d="M3599 9637 c-72 -48 -86 -136 -31 -198 70 -78 208 -38 228 66 13 69
-59 155 -131 155 -18 0 -47 -10 -66 -23z"/>
<path d="M3901 9643 c-48 -25 -72 -62 -73 -109 -1 -81 54 -137 135 -136 46 1
81 22 107 65 66 108 -57 239 -169 180z"/>
<path d="M4191 9643 c-104 -51 -87 -211 26 -242 77 -22 163 42 163 122 0 54
-31 104 -75 123 -44 18 -72 17 -114 -3z"/>
<path d="M4485 9641 c-46 -28 -66 -56 -71 -98 -9 -74 49 -144 122 -145 80 -1
137 52 137 128 0 100 -107 165 -188 115z"/>
<path d="M5365 9642 c-46 -30 -66 -57 -71 -99 -9 -74 49 -144 122 -145 81 -1
137 54 137 134 0 93 -112 158 -188 110z"/>
<path d="M6241 9642 c-65 -36 -89 -118 -51 -179 26 -43 61 -64 107 -65 133 -2
187 166 78 238 -39 25 -95 28 -134 6z"/>
<path d="M6833 9646 c-42 -19 -73 -70 -73 -121 0 -116 136 -170 222 -88 34 32
45 82 29 133 -21 70 -109 107 -178 76z"/>
<path d="M7409 9637 c-72 -48 -86 -136 -31 -198 71 -79 208 -39 227 65 14 70
-58 156 -130 156 -18 0 -47 -10 -66 -23z"/>
<path d="M2695 9327 c-44 -44 -53 -93 -29 -143 26 -53 66 -79 119 -79 53 0 93
26 119 79 24 50 15 99 -29 143 -30 30 -39 33 -90 33 -51 0 -60 -3 -90 -33z"/>
<path d="M3008 9344 c-85 -46 -73 -192 19 -231 53 -21 100 -11 143 32 32 32
35 41 35 91 0 51 -3 58 -37 90 -32 29 -45 34 -85 34 -27 -1 -60 -7 -75 -16z"/>
<path d="M3575 9327 c-44 -44 -53 -93 -29 -143 26 -53 66 -79 119 -79 53 0 93
26 119 79 25 51 15 100 -31 143 -30 29 -41 33 -90 33 -49 0 -59 -4 -88 -33z"/>
<path d="M4164 9327 c-69 -63 -53 -172 30 -211 42 -20 67 -20 111 -2 92 39
101 179 15 230 -16 9 -49 16 -74 16 -38 0 -52 -6 -82 -33z"/>
<path d="M4461 9334 c-34 -29 -57 -89 -47 -127 9 -39 53 -84 91 -97 134 -44
233 139 121 225 -47 36 -122 35 -165 -1z"/>
<path d="M4753 9334 c-86 -67 -48 -209 62 -230 99 -18 187 96 141 183 -26 51
-62 73 -120 73 -39 0 -58 -6 -83 -26z"/>
<path d="M5059 9343 c-84 -52 -76 -184 14 -226 19 -9 45 -17 57 -17 12 0 38 8
57 17 91 43 98 176 13 227 -36 20 -107 20 -141 -1z"/>
<path d="M5346 9339 c-63 -49 -72 -135 -21 -189 56 -58 126 -63 184 -14 59 49
60 134 4 190 -30 30 -40 34 -87 34 -39 0 -60 -6 -80 -21z"/>
<path d="M5633 9334 c-110 -86 -12 -268 122 -224 38 13 82 58 91 97 10 38 -13
98 -47 127 -43 36 -120 37 -166 0z"/>
<path d="M5939 9343 c-85 -52 -75 -191 16 -229 44 -18 69 -18 111 2 83 39 99
148 30 211 -30 28 -43 33 -83 33 -27 0 -60 -8 -74 -17z"/>
<path d="M6215 9327 c-59 -59 -59 -130 -1 -186 107 -104 271 23 202 157 -21
41 -63 62 -122 62 -39 0 -51 -5 -79 -33z"/>
<path d="M6507 9327 c-46 -43 -56 -92 -31 -143 26 -53 66 -79 119 -79 53 0 93
26 119 79 24 50 15 99 -29 143 -29 29 -39 33 -88 33 -49 0 -60 -4 -90 -33z"/>
<path d="M7094 9327 c-107 -98 5 -270 139 -214 93 39 104 187 17 232 -16 8
-50 15 -75 15 -37 0 -52 -6 -81 -33z"/>
<path d="M7385 9327 c-44 -44 -53 -93 -29 -143 26 -53 66 -79 119 -79 53 0 93
26 119 79 24 50 15 99 -29 143 -30 30 -39 33 -90 33 -51 0 -60 -3 -90 -33z"/>
<path d="M2714 9051 c-67 -41 -80 -138 -27 -195 66 -71 171 -57 213 28 24 51
25 68 4 112 -32 68 -125 95 -190 55z"/>
<path d="M2989 9031 c-35 -35 -39 -44 -39 -90 0 -44 5 -56 33 -87 43 -47 113
-57 165 -24 59 36 78 118 42 177 -24 41 -67 63 -121 63 -35 0 -48 -6 -80 -39z"/>
<path d="M3875 9039 c-89 -78 -46 -215 72 -226 64 -6 112 25 133 85 43 124
-106 227 -205 141z"/>
<path d="M4770 9053 c-108 -74 -71 -229 57 -240 59 -5 102 19 126 70 21 43 21
67 3 112 -28 66 -129 97 -186 58z"/>
<path d="M5955 9060 c-40 -16 -68 -57 -72 -107 -5 -58 10 -89 56 -120 85 -57
201 5 201 107 0 91 -100 156 -185 120z"/>
<path d="M6229 9047 c-22 -15 -39 -38 -49 -65 -13 -37 -13 -47 0 -84 21 -61
69 -91 134 -85 41 4 55 11 83 41 28 31 33 43 33 87 0 46 -4 55 -39 90 -33 34
-45 39 -83 39 -30 0 -56 -8 -79 -23z"/>
<path d="M6527 9051 c-78 -51 -84 -145 -14 -210 57 -52 161 -31 199 40 22 41
23 68 4 114 -28 67 -128 97 -189 56z"/>
<path d="M6799 9031 c-34 -33 -39 -45 -39 -82 0 -56 16 -87 59 -116 61 -41
143 -23 181 40 55 90 -11 197 -121 197 -35 0 -48 -6 -80 -39z"/>
<path d="M7113 9050 c-81 -49 -82 -170 -1 -220 52 -33 122 -23 165 24 28 31
33 43 33 87 0 46 -4 55 -39 90 -33 33 -45 39 -82 39 -26 0 -57 -8 -76 -20z"/>
<path d="M3615 8768 c-69 -37 -97 -97 -76 -161 42 -128 231 -113 256 20 17 93
-101 185 -180 141z"/>
<path d="M5361 8762 c-37 -20 -71 -73 -71 -110 0 -36 25 -87 55 -110 56 -44
159 -22 191 40 35 67 15 139 -49 178 -40 25 -82 25 -126 2z"/>
<path d="M5650 8758 c-47 -31 -73 -83 -64 -128 13 -76 70 -116 150 -107 53 6
88 34 105 84 37 113 -94 217 -191 151z"/>
<path d="M5953 8765 c-43 -19 -73 -69 -73 -124 0 -37 6 -49 39 -82 35 -35 44
-39 90 -39 44 0 56 5 87 33 31 28 37 41 41 83 5 61 -21 108 -72 130 -43 17
-71 17 -112 -1z"/>
<path d="M6529 8757 c-96 -64 -82 -195 25 -231 85 -29 176 36 176 126 0 33
-35 85 -72 108 -43 26 -87 25 -129 -3z"/>
<path d="M7121 8762 c-62 -33 -87 -111 -56 -172 47 -90 178 -96 229 -10 23 40
21 111 -5 144 -44 56 -108 70 -168 38z"/>
<path d="M7409 8757 c-97 -64 -83 -194 25 -231 122 -42 224 98 145 198 -45 58
-113 71 -170 33z"/>
<path d="M3051 8482 c-120 -19 -137 -201 -24 -248 49 -21 96 -11 141 31 34 31
37 38 37 89 0 49 -4 59 -31 86 -32 32 -80 49 -123 42z"/>
<path d="M3335 8479 c-101 -28 -125 -170 -39 -232 83 -61 204 1 204 106 0 89
-80 150 -165 126z"/>
<path d="M3930 8482 c-63 -8 -115 -90 -99 -159 16 -72 93 -117 161 -94 102 34
128 153 50 224 -23 21 -74 34 -112 29z"/>
<path d="M4215 8479 c-114 -32 -128 -192 -21 -243 43 -20 69 -20 113 1 90 42
98 177 14 225 -37 22 -71 27 -106 17z"/>
<path d="M4512 8479 c-93 -19 -129 -133 -66 -209 67 -79 197 -51 224 49 26 99
-55 182 -158 160z"/>
<path d="M4810 8482 c-103 -15 -140 -158 -59 -226 62 -53 149 -38 196 33 62
93 -21 210 -137 193z"/>
<path d="M5682 8479 c-99 -21 -131 -156 -52 -223 58 -48 136 -42 184 14 83 99
-3 237 -132 209z"/>
<path d="M6271 8479 c-18 -4 -48 -21 -65 -38 -27 -27 -31 -38 -31 -86 0 -46 4
-58 30 -85 76 -80 195 -53 223 51 18 69 -31 151 -97 161 -14 2 -41 1 -60 -3z"/>
<path d="M6560 8479 c-75 -16 -118 -106 -84 -175 26 -53 66 -79 119 -79 53 0
93 26 119 79 47 96 -42 199 -154 175z"/>
<path d="M6859 8480 c-68 -20 -99 -60 -99 -127 0 -139 185 -180 246 -54 46 96
-46 211 -147 181z"/>
<path d="M7151 8479 c-18 -4 -48 -21 -65 -38 -27 -28 -31 -38 -31 -87 0 -51 3
-58 37 -89 20 -19 52 -37 71 -40 75 -14 147 49 147 128 0 90 -69 145 -159 126z"/>
<path d="M2712 8170 c-41 -25 -66 -81 -57 -127 3 -19 21 -51 40 -71 31 -34 38
-37 90 -37 52 0 59 3 90 37 43 47 53 94 29 143 -33 71 -123 97 -192 55z"/>
<path d="M3303 8170 c-112 -68 -62 -240 70 -240 40 0 96 35 114 70 7 14 13 45
13 69 0 37 -5 49 -39 82 -33 33 -45 39 -82 39 -26 0 -57 -8 -76 -20z"/>
<path d="M3889 8173 c-68 -42 -82 -136 -28 -197 97 -111 272 1 216 137 -29 68
-126 99 -188 60z"/>
<path d="M4472 8170 c-34 -21 -62 -72 -62 -112 0 -37 34 -90 71 -110 106 -59
228 49 183 161 -30 75 -121 104 -192 61z"/>
<path d="M5044 8157 c-87 -80 -32 -227 86 -227 118 0 173 147 86 227 -30 28
-43 33 -86 33 -43 0 -56 -5 -86 -33z"/>
<path d="M5647 8171 c-78 -51 -84 -145 -14 -210 57 -52 161 -31 199 40 22 41
23 68 4 114 -28 67 -128 97 -189 56z"/>
<path d="M6232 8170 c-85 -52 -76 -189 15 -226 45 -19 82 -17 120 6 43 26 64
61 65 108 1 105 -110 167 -200 112z"/>
<path d="M6799 8151 c-34 -33 -39 -45 -39 -82 0 -56 16 -87 59 -116 61 -41
143 -23 181 40 55 90 -11 197 -121 197 -35 0 -48 -6 -80 -39z"/>
<path d="M7404 8171 c-41 -25 -68 -82 -59 -128 3 -19 21 -51 40 -71 31 -34 38
-37 90 -37 52 0 59 3 90 37 43 47 53 94 29 143 -22 47 -67 75 -119 75 -22 0
-54 -9 -71 -19z"/>
<path d="M3014 7881 c-46 -28 -64 -59 -64 -109 0 -81 51 -132 133 -132 50 0
88 24 112 70 58 112 -74 236 -181 171z"/>
<path d="M3313 7885 c-63 -27 -91 -112 -58 -175 25 -48 62 -70 118 -70 44 0
53 4 88 39 34 33 39 45 39 82 0 56 -16 87 -59 116 -38 26 -81 29 -128 8z"/>
<path d="M3893 7880 c-43 -26 -64 -61 -65 -108 -1 -83 62 -139 146 -130 53 6
82 28 102 75 19 43 18 72 -4 112 -35 65 -118 89 -179 51z"/>
<path d="M4193 7885 c-49 -21 -75 -69 -70 -129 4 -42 10 -55 41 -83 31 -28 43
-33 87 -33 46 0 55 4 90 39 33 33 39 45 39 82 0 105 -92 165 -187 124z"/>
<path d="M4481 7882 c-37 -20 -71 -73 -71 -110 0 -70 62 -132 133 -132 77 0
130 52 130 126 0 101 -104 163 -192 116z"/>
<path d="M4773 7880 c-64 -39 -85 -115 -48 -177 52 -88 192 -81 231 12 19 46
18 73 -4 114 -35 65 -118 89 -179 51z"/>
<path d="M5063 7880 c-75 -45 -84 -148 -19 -207 30 -28 43 -33 86 -33 43 0 56
5 86 33 87 80 32 227 -86 227 -19 0 -49 -9 -67 -20z"/>
<path d="M5361 7882 c-37 -20 -71 -73 -71 -110 0 -32 23 -84 48 -106 31 -27
107 -33 147 -12 41 22 68 69 68 117 0 46 -23 83 -66 109 -40 25 -82 25 -126 2z"/>
<path d="M5649 7877 c-114 -76 -67 -237 68 -237 71 0 133 62 133 132 0 37 -34
90 -71 110 -45 24 -89 23 -130 -5z"/>
<path d="M7413 7880 c-118 -71 -74 -240 62 -240 110 0 170 120 104 204 -44 56
-110 70 -166 36z"/>
<path d="M1289 7600 c-45 -13 -68 -30 -84 -60 -35 -67 -8 -152 58 -183 45 -22
62 -21 113 3 67 33 91 105 59 174 -24 50 -93 82 -146 66z"/>
<path d="M1575 7599 c-17 -4 -44 -22 -60 -39 -26 -27 -30 -39 -30 -86 0 -51 3
-58 37 -89 47 -44 95 -53 145 -29 143 71 60 288 -92 243z"/>
<path d="M2171 7602 c-120 -21 -138 -193 -26 -246 49 -24 96 -14 143 29 34 31
37 38 37 88 0 45 -5 60 -25 82 -38 41 -80 56 -129 47z"/>
<path d="M2455 7599 c-17 -5 -44 -22 -60 -39 -26 -27 -30 -39 -30 -86 0 -51 3
-58 37 -89 47 -43 94 -53 143 -29 67 32 95 116 61 183 -27 51 -91 77 -151 60z"/>
<path d="M3626 7600 c-90 -28 -121 -136 -59 -210 95 -113 282 5 217 136 -32
63 -95 93 -158 74z"/>
<path d="M4506 7600 c-98 -30 -124 -158 -45 -224 85 -72 212 -13 212 98 0 90
-81 152 -167 126z"/>
<path d="M5085 7595 c-22 -8 -41 -15 -42 -15 -1 0 -11 -15 -22 -34 -56 -90 4
-200 109 -200 51 0 83 18 111 61 39 58 12 158 -49 181 -51 20 -67 21 -107 7z"/>
<path d="M5386 7600 c-53 -17 -96 -73 -96 -128 0 -40 38 -94 83 -116 51 -24
100 -15 144 29 32 32 39 56 34 115 -6 71 -91 122 -165 100z"/>
<path d="M5676 7600 c-96 -29 -122 -159 -46 -224 58 -48 136 -42 184 15 83 99
-14 246 -138 209z"/>
<path d="M6265 7599 c-17 -4 -44 -22 -60 -39 -26 -27 -30 -39 -30 -86 0 -51 3
-58 37 -89 47 -44 95 -53 145 -29 143 71 61 289 -92 243z"/>
<path d="M6861 7602 c-120 -21 -138 -193 -26 -246 49 -23 96 -14 141 27 97 88
15 243 -115 219z"/>
<path d="M8905 7599 c-115 -32 -128 -187 -21 -239 51 -24 68 -25 113 -3 66 31
93 116 58 183 -25 47 -95 75 -150 59z"/>
<path d="M9196 7600 c-98 -30 -124 -158 -45 -224 85 -72 212 -13 212 98 0 90
-81 152 -167 126z"/>
<path d="M1229 7271 c-33 -33 -39 -45 -39 -82 0 -76 57 -139 125 -139 81 0
139 63 132 144 -4 42 -10 55 -41 83 -31 28 -43 33 -87 33 -46 0 -55 -4 -90
-39z"/>
<path d="M1526 7277 c-58 -55 -61 -131 -5 -186 54 -55 129 -53 186 4 28 28 33
40 33 80 0 84 -50 135 -133 135 -38 0 -52 -6 -81 -33z"/>
<path d="M1832 7290 c-41 -25 -66 -81 -57 -127 3 -19 21 -51 40 -71 31 -34 38
-37 90 -37 52 0 59 3 90 37 19 20 37 52 40 71 14 75 -49 147 -130 147 -23 0
-54 -9 -73 -20z"/>
<path d="M2712 7290 c-41 -25 -66 -81 -57 -127 3 -19 21 -51 40 -71 31 -34 38
-37 90 -37 52 0 59 3 90 37 19 20 37 52 40 71 14 75 -49 147 -130 147 -23 0
-54 -9 -73 -20z"/>
<path d="M3592 7290 c-71 -44 -79 -138 -17 -200 32 -31 41 -35 89 -35 44 0 60
5 81 25 55 51 66 119 27 178 -34 53 -121 68 -180 32z"/>
<path d="M5352 7290 c-34 -21 -62 -72 -62 -112 0 -62 70 -128 135 -128 63 0
126 61 128 123 3 108 -109 173 -201 117z"/>
<path d="M5649 7295 c-106 -57 -72 -226 49 -242 101 -14 178 86 139 180 -28
67 -122 98 -188 62z"/>
<path d="M6227 7289 c-34 -26 -57 -69 -57 -106 0 -67 67 -133 135 -133 36 0
88 30 110 64 36 54 13 145 -45 180 -39 23 -109 20 -143 -5z"/>
<path d="M6529 7295 c-54 -29 -79 -101 -56 -156 25 -60 61 -84 123 -84 48 0
57 4 89 35 43 43 53 90 32 143 -28 67 -122 98 -188 62z"/>
<path d="M7699 7293 c-39 -24 -59 -65 -59 -118 0 -40 5 -52 33 -80 39 -39 72
-50 124 -40 69 13 116 91 98 162 -3 15 -22 42 -41 60 -30 28 -43 33 -82 33
-26 0 -59 -8 -73 -17z"/>
<path d="M8282 7290 c-41 -25 -66 -81 -57 -127 3 -19 21 -51 40 -71 31 -34 38
-37 90 -37 52 0 59 3 90 37 43 47 53 94 29 143 -33 71 -123 97 -192 55z"/>
<path d="M8579 7293 c-39 -24 -59 -65 -59 -118 0 -40 5 -52 33 -80 57 -57 132
-59 186 -4 56 55 53 131 -5 186 -30 28 -43 33 -82 33 -26 0 -59 -8 -73 -17z"/>
<path d="M8854 7277 c-89 -82 -31 -227 91 -227 68 0 125 63 125 139 0 37 -6
49 -39 82 -35 35 -44 39 -90 39 -44 0 -56 -5 -87 -33z"/>
<path d="M9459 7293 c-58 -35 -80 -125 -45 -178 23 -35 74 -65 111 -65 65 0
135 66 135 128 0 40 -28 91 -62 112 -40 24 -103 26 -139 3z"/>
<path d="M671 7002 c-37 -20 -71 -73 -71 -110 0 -131 179 -182 245 -69 37 62
16 138 -48 177 -40 25 -82 25 -126 2z"/>
<path d="M959 6997 c-85 -57 -86 -163 -2 -218 61 -41 161 -11 189 56 19 46 18
73 -4 114 -36 67 -121 90 -183 48z"/>
<path d="M1542 7000 c-59 -36 -78 -118 -42 -177 24 -41 67 -63 121 -63 35 0
48 6 80 39 35 35 39 44 39 88 0 106 -109 167 -198 113z"/>
<path d="M2134 7001 c-47 -29 -64 -59 -64 -114 0 -44 4 -54 39 -88 33 -34 45
-39 82 -39 56 0 87 16 116 59 76 113 -57 253 -173 182z"/>
<path d="M2423 7000 c-63 -38 -81 -120 -40 -181 29 -43 60 -59 116 -59 37 0
49 5 82 39 35 35 39 44 39 88 0 105 -109 167 -197 113z"/>
<path d="M2740 7014 c-35 -15 -79 -68 -85 -105 -25 -146 186 -209 249 -74 23
49 14 96 -27 142 -26 28 -42 36 -77 39 -25 2 -52 1 -60 -2z"/>
<path d="M7112 7000 c-61 -37 -79 -122 -39 -181 29 -43 60 -59 116 -59 37 0
49 5 82 39 35 35 39 44 39 88 0 106 -109 167 -198 113z"/>
<path d="M7424 7011 c-32 -14 -72 -68 -80 -105 -8 -44 19 -102 60 -127 67 -41
157 -14 190 56 23 49 14 96 -27 142 -26 28 -42 36 -77 39 -25 2 -54 0 -66 -5z"/>
<path d="M7993 7000 c-63 -38 -81 -120 -40 -181 29 -43 60 -59 116 -59 37 0
49 5 82 39 35 35 39 44 39 88 0 105 -109 167 -197 113z"/>
<path d="M8295 7005 c-122 -64 -79 -245 58 -245 126 0 178 142 84 229 -33 30
-101 38 -142 16z"/>
<path d="M9463 7000 c-64 -39 -85 -115 -48 -177 52 -88 192 -81 231 12 19 46
18 73 -4 114 -35 65 -118 89 -179 51z"/>
<path d="M9753 7000 c-75 -45 -84 -148 -19 -207 30 -28 43 -33 86 -33 43 0 56
5 86 33 87 80 32 227 -86 227 -19 0 -49 -9 -67 -20z"/>
<path d="M405 6723 c-81 -21 -121 -121 -78 -194 17 -28 84 -69 113 -69 8 0 33
9 56 20 101 49 97 193 -6 234 -41 16 -51 17 -85 9z"/>
<path d="M1285 6723 c-57 -15 -95 -67 -95 -130 0 -89 92 -154 171 -120 110 47
119 186 15 237 -43 20 -55 22 -91 13z"/>
<path d="M1866 6720 c-90 -28 -121 -136 -59 -210 95 -113 282 5 217 136 -32
63 -95 93 -158 74z"/>
<path d="M2433 6710 c-74 -38 -96 -138 -41 -197 86 -94 228 -42 228 84 0 100
-96 158 -187 113z"/>
<path d="M3030 6717 c-45 -16 -80 -68 -80 -119 0 -128 141 -180 230 -83 20 21
25 37 25 80 0 60 -25 97 -82 121 -38 17 -47 17 -93 1z"/>
<path d="M7436 6720 c-90 -28 -121 -136 -59 -210 95 -113 282 5 217 136 -32
63 -95 93 -158 74z"/>
<path d="M8316 6720 c-90 -28 -121 -136 -59 -210 95 -113 282 5 217 136 -32
63 -95 93 -158 74z"/>
<path d="M8604 6719 c-65 -19 -102 -95 -78 -165 34 -99 150 -120 224 -39 20
21 25 37 25 80 0 60 -25 97 -82 121 -36 16 -45 16 -89 3z"/>
<path d="M9184 6716 c-90 -40 -108 -157 -33 -220 85 -72 212 -13 212 98 0 48
-20 87 -56 110 -34 22 -88 28 -123 12z"/>
<path d="M9484 6719 c-88 -26 -117 -143 -50 -213 42 -45 91 -55 143 -30 110
54 107 193 -4 240 -36 16 -45 16 -89 3z"/>
<path d="M3961 6549 c-107 -18 -203 -101 -237 -206 -18 -56 -19 -107 -19
-1218 0 -1135 0 -1161 20 -1214 24 -64 81 -132 139 -166 71 -41 143 -46 721
-43 l540 3 3 553 2 552 -160 0 -160 0 0 240 0 240 160 0 160 0 0 236 c0 262 8
313 63 419 37 70 142 180 211 220 27 16 78 39 115 52 63 23 76 24 311 24 134
-1 248 -5 252 -9 5 -5 7 -112 6 -238 l-3 -229 -186 -5 c-183 -5 -186 -5 -221
-32 -61 -47 -68 -74 -68 -267 l0 -171 238 -2 237 -3 0 -235 0 -235 -237 -3
-238 -2 0 -555 0 -555 308 0 c332 0 414 8 479 45 61 36 117 106 139 172 18 56
19 107 19 1213 0 1106 -1 1157 -19 1213 -36 109 -129 187 -246 206 -81 13
-2250 13 -2329 0z"/>
<path d="M349 6391 c-34 -33 -39 -45 -39 -83 0 -61 33 -108 88 -128 37 -13 47
-13 84 0 61 21 91 69 85 134 -4 41 -11 55 -41 83 -31 28 -43 33 -87 33 -46 0
-55 -4 -90 -39z"/>
<path d="M959 6415 c-57 -31 -81 -108 -52 -165 44 -86 143 -104 210 -38 41 41
51 89 30 141 -28 67 -122 98 -188 62z"/>
<path d="M1229 6391 c-34 -33 -39 -45 -39 -83 0 -61 33 -108 88 -128 37 -13
47 -13 84 0 61 21 91 69 85 134 -4 41 -11 55 -41 83 -31 28 -43 33 -87 33 -46
0 -55 -4 -90 -39z"/>
<path d="M1525 6397 c-57 -57 -59 -132 -4 -186 54 -55 129 -53 186 4 28 28 33
40 33 80 0 85 -50 135 -135 135 -40 0 -52 -5 -80 -33z"/>
<path d="M1832 6410 c-42 -26 -66 -81 -57 -128 8 -41 60 -98 98 -108 70 -17
149 36 162 109 14 75 -49 147 -130 147 -23 0 -54 -9 -73 -20z"/>
<path d="M2128 6413 c-63 -39 -77 -145 -28 -198 93 -99 258 -9 226 122 -4 14
-22 41 -41 60 -28 28 -40 33 -81 33 -28 0 -61 -8 -76 -17z"/>
<path d="M2405 6397 c-57 -57 -59 -132 -4 -186 77 -78 204 -34 217 75 9 86
-44 144 -133 144 -40 0 -52 -5 -80 -33z"/>
<path d="M2712 6410 c-41 -25 -66 -81 -57 -127 3 -19 21 -51 40 -71 31 -34 38
-37 90 -37 52 0 59 3 90 37 19 20 37 52 40 71 14 75 -49 147 -130 147 -23 0
-54 -9 -73 -20z"/>
<path d="M3009 6413 c-39 -24 -59 -65 -59 -118 0 -40 5 -52 33 -80 57 -57 132
-59 186 -4 55 54 53 129 -4 186 -28 28 -40 33 -81 33 -27 0 -61 -8 -75 -17z"/>
<path d="M7402 6410 c-41 -25 -66 -81 -57 -127 3 -19 21 -51 40 -71 31 -34 38
-37 90 -37 52 0 59 3 90 37 19 20 37 52 40 71 14 75 -49 147 -130 147 -23 0
-54 -9 -73 -20z"/>
<path d="M7976 6399 c-106 -93 -7 -264 127 -220 51 17 78 52 85 107 9 86 -44
144 -132 144 -36 0 -52 -6 -80 -31z"/>
<path d="M8282 6410 c-68 -42 -78 -130 -21 -195 52 -59 127 -59 185 -1 84 84
28 216 -91 216 -23 0 -54 -9 -73 -20z"/>
<path d="M8579 6413 c-39 -24 -59 -65 -59 -118 0 -40 5 -52 33 -80 57 -57 132
-59 186 -4 55 54 53 129 -4 186 -28 28 -40 33 -81 33 -27 0 -61 -8 -75 -17z"/>
<path d="M9454 6410 c-55 -35 -74 -122 -39 -176 22 -34 74 -64 110 -64 65 0
135 66 135 128 0 38 -26 88 -58 111 -39 27 -106 28 -148 1z"/>
<path d="M9734 6397 c-30 -28 -37 -42 -41 -83 -4 -40 0 -55 19 -84 73 -108
238 -54 238 78 0 38 -5 50 -39 83 -35 35 -44 39 -90 39 -44 0 -56 -5 -87 -33z"/>
<path d="M369 6117 c-46 -31 -61 -62 -56 -120 6 -68 46 -108 114 -114 58 -5
89 10 120 56 78 116 -62 256 -178 178z"/>
<path d="M1249 6117 c-42 -28 -59 -60 -59 -115 0 -34 6 -49 33 -78 28 -31 41
-37 83 -41 59 -5 90 10 121 56 78 116 -62 256 -178 178z"/>
<path d="M2721 6122 c-37 -20 -71 -73 -71 -110 0 -38 31 -93 64 -113 65 -40
158 -13 190 55 21 44 20 61 -4 112 -34 69 -110 93 -179 56z"/>
<path d="M3014 6121 c-47 -29 -64 -59 -64 -114 0 -44 4 -54 39 -88 32 -33 45
-39 80 -39 54 0 97 22 121 63 69 113 -63 247 -176 178z"/>
<path d="M7112 6120 c-59 -36 -78 -118 -42 -177 24 -41 67 -63 121 -63 35 0
48 6 80 39 35 35 39 44 39 88 0 106 -109 167 -198 113z"/>
<path d="M7704 6121 c-47 -29 -64 -59 -64 -114 0 -44 4 -54 39 -88 32 -33 45
-39 80 -39 54 0 97 22 121 63 70 114 -63 247 -176 178z"/>
<path d="M8291 6122 c-37 -20 -71 -73 -71 -110 0 -38 31 -93 64 -113 58 -35
142 -18 180 37 76 109 -57 251 -173 186z"/>
<path d="M8584 6121 c-47 -29 -64 -59 -64 -114 0 -44 4 -54 39 -88 33 -34 45
-39 83 -39 61 0 108 33 128 88 13 37 13 47 0 84 -28 78 -117 111 -186 69z"/>
<path d="M9465 6122 c-39 -24 -54 -43 -65 -81 -21 -75 44 -161 124 -161 59 0
107 33 126 88 13 37 13 47 0 84 -27 78 -117 111 -185 70z"/>
<path d="M381 5833 c-65 -33 -91 -121 -54 -184 10 -16 37 -39 61 -51 37 -18
49 -19 81 -10 77 24 121 110 91 182 -26 64 -115 95 -179 63z"/>
<path d="M685 5836 c-132 -61 -96 -249 49 -249 75 0 129 57 128 136 -1 89 -97
150 -177 113z"/>
<path d="M1854 5836 c-86 -39 -108 -152 -40 -215 103 -97 272 20 210 145 -34
69 -107 99 -170 70z"/>
<path d="M2143 5835 c-67 -29 -93 -125 -53 -191 28 -45 95 -71 143 -55 115 38
130 194 23 242 -49 22 -70 23 -113 4z"/>
<path d="M2734 5836 c-86 -39 -108 -152 -40 -215 103 -97 272 20 210 145 -34
69 -107 99 -170 70z"/>
<path d="M3025 5836 c-45 -20 -67 -50 -72 -100 -10 -87 41 -149 123 -149 139
0 184 183 60 243 -49 23 -69 24 -111 6z"/>
<path d="M7713 5835 c-85 -37 -98 -177 -21 -227 113 -73 250 45 193 165 -11
24 -31 43 -59 57 -49 23 -69 24 -113 5z"/>
<path d="M8004 5831 c-107 -48 -92 -204 23 -242 48 -16 115 10 143 55 41 67
14 163 -55 192 -44 18 -61 18 -111 -5z"/>
<path d="M8304 5836 c-86 -39 -108 -152 -40 -215 103 -97 272 20 210 145 -34
69 -107 99 -170 70z"/>
<path d="M8910 5843 c-40 -13 -62 -30 -82 -61 -44 -71 -2 -168 83 -194 32 -9
44 -8 81 10 51 25 78 66 78 119 0 85 -84 151 -160 126z"/>
<path d="M645 5517 c-59 -59 -59 -130 -1 -186 107 -104 271 23 202 157 -21 41
-63 62 -122 62 -39 0 -51 -5 -79 -33z"/>
<path d="M1525 5517 c-57 -57 -59 -132 -4 -186 81 -81 220 -26 219 87 -1 85
-49 132 -133 132 -42 0 -54 -5 -82 -33z"/>
<path d="M2404 5517 c-66 -60 -53 -166 27 -209 41 -22 68 -23 114 -4 92 39
101 179 15 230 -16 9 -49 16 -74 16 -38 0 -52 -6 -82 -33z"/>
<path d="M3004 5530 c-41 -26 -58 -68 -51 -126 12 -107 139 -150 216 -73 55
54 53 129 -4 186 -28 28 -40 33 -81 33 -32 0 -60 -7 -80 -20z"/>
<path d="M7095 5517 c-57 -57 -59 -132 -4 -186 77 -78 204 -34 217 75 9 86
-44 144 -133 144 -40 0 -52 -5 -80 -33z"/>
<path d="M8267 5517 c-46 -43 -56 -92 -31 -144 35 -71 111 -101 174 -68 130
67 85 245 -62 245 -39 0 -52 -5 -81 -33z"/>
<path d="M8854 5517 c-31 -28 -37 -41 -41 -83 -5 -60 18 -103 70 -127 43 -21
67 -21 112 -3 92 39 101 179 15 230 -16 9 -49 16 -74 16 -38 0 -52 -6 -82 -33z"/>
<path d="M9153 5524 c-36 -28 -59 -88 -49 -128 10 -41 63 -95 102 -102 100
-19 184 75 152 171 -27 81 -137 113 -205 59z"/>
<path d="M9734 5517 c-30 -28 -37 -42 -41 -83 -4 -40 0 -55 19 -84 73 -108
238 -54 238 78 0 38 -5 50 -39 83 -35 35 -44 39 -90 39 -44 0 -56 -5 -87 -33z"/>
<path d="M660 5238 c-23 -15 -40 -38 -50 -66 -20 -57 0 -116 50 -150 71 -48
176 -9 199 75 31 112 -102 207 -199 141z"/>
<path d="M1249 5237 c-46 -31 -61 -62 -56 -120 11 -124 172 -161 237 -54 72
117 -68 251 -181 174z"/>
<path d="M1540 5238 c-50 -34 -70 -93 -50 -150 21 -61 69 -91 134 -85 41 4 55
11 83 41 28 30 33 43 33 86 0 43 -5 56 -33 86 -28 30 -42 37 -83 41 -40 4 -55
0 -84 -19z"/>
<path d="M2134 5241 c-47 -29 -64 -59 -64 -113 0 -129 173 -176 240 -65 70
114 -63 247 -176 178z"/>
<path d="M2423 5240 c-120 -73 -55 -253 86 -237 36 4 52 13 78 41 100 109 -37
274 -164 196z"/>
<path d="M2715 5240 c-34 -22 -65 -74 -65 -108 0 -39 30 -90 65 -112 89 -55
199 6 199 110 0 27 -7 56 -17 70 -41 59 -125 78 -182 40z"/>
<path d="M3024 5250 c-11 -4 -33 -22 -47 -40 -21 -25 -27 -42 -27 -81 0 -42 5
-55 33 -85 28 -30 42 -37 83 -41 65 -6 113 24 134 85 13 37 13 47 0 84 -25 71
-105 107 -176 78z"/>
<path d="M7113 5241 c-120 -75 -55 -254 86 -238 36 4 52 13 78 41 28 30 33 43
33 86 0 43 -5 56 -33 86 -28 31 -41 37 -83 41 -37 3 -57 -1 -81 -16z"/>
<path d="M7993 5240 c-120 -73 -55 -253 86 -237 36 4 52 13 78 41 100 109 -37
274 -164 196z"/>
<path d="M8873 5240 c-120 -73 -55 -253 85 -237 63 7 103 49 109 114 5 58 -10
89 -56 120 -42 28 -95 30 -138 3z"/>
<path d="M9164 5241 c-32 -20 -64 -74 -64 -111 0 -37 32 -91 64 -111 39 -24
99 -24 137 -2 16 10 39 37 51 61 18 38 19 49 9 82 -17 56 -71 100 -124 100
-23 0 -56 -8 -73 -19z"/>
<path d="M9475 5250 c-30 -12 -64 -53 -74 -88 -32 -110 103 -205 199 -140 50
34 70 93 50 150 -25 71 -106 107 -175 78z"/>
<path d="M675 4952 c-48 -31 -67 -58 -72 -104 -10 -104 99 -174 195 -124 58
30 84 126 47 182 -37 57 -118 79 -170 46z"/>
<path d="M1263 4955 c-85 -36 -98 -163 -23 -222 27 -22 78 -32 113 -22 114 31
130 192 24 242 -42 20 -71 21 -114 2z"/>
<path d="M1570 4962 c-81 -36 -112 -121 -70 -189 39 -64 111 -84 178 -49 62
32 84 135 40 191 -34 44 -105 66 -148 47z"/>
<path d="M1839 4947 c-72 -48 -86 -136 -31 -198 72 -80 208 -41 228 66 13 69
-59 155 -131 155 -18 0 -47 -10 -66 -23z"/>
<path d="M2431 4952 c-74 -40 -92 -143 -35 -203 53 -55 134 -56 188 -2 32 32
40 61 33 114 -6 47 -29 76 -74 95 -43 19 -72 18 -112 -4z"/>
<path d="M7409 4947 c-72 -47 -86 -134 -33 -197 70 -82 209 -43 230 65 13 69
-59 155 -131 155 -18 0 -47 -10 -66 -23z"/>
<path d="M7715 4956 c-45 -20 -67 -50 -73 -102 -9 -83 47 -147 129 -147 46 0
83 23 109 66 38 61 14 144 -51 179 -39 21 -72 22 -114 4z"/>
<path d="M8001 4952 c-74 -40 -92 -143 -35 -203 82 -86 224 -31 224 86 0 52
-31 102 -75 121 -46 19 -73 18 -114 -4z"/>
<path d="M8289 4947 c-71 -47 -86 -134 -33 -196 69 -82 210 -43 229 63 14 70
-58 156 -130 156 -18 0 -47 -10 -66 -23z"/>
<path d="M8594 4956 c-94 -41 -102 -186 -12 -232 67 -35 139 -15 178 49 38 62
16 139 -49 175 -44 25 -73 27 -117 8z"/>
<path d="M8881 4953 c-104 -51 -87 -211 26 -242 35 -10 86 0 113 22 76 60 61
187 -25 223 -44 18 -72 17 -114 -3z"/>
<path d="M9761 4953 c-104 -51 -87 -211 26 -242 77 -22 163 42 163 122 0 54
-31 104 -75 123 -44 18 -72 17 -114 -3z"/>
<path d="M369 4653 c-85 -52 -75 -191 16 -229 45 -18 69 -18 112 3 52 24 75
67 70 127 -4 42 -10 55 -41 83 -30 28 -43 33 -83 33 -27 0 -60 -8 -74 -17z"/>
<path d="M937 4638 c-44 -43 -55 -95 -30 -145 37 -76 120 -103 183 -61 77 52
88 142 25 205 -29 29 -39 33 -88 33 -49 0 -60 -4 -90 -32z"/>
<path d="M1249 4653 c-85 -52 -75 -191 16 -229 44 -18 69 -18 111 2 83 39 99
148 30 211 -30 28 -43 33 -83 33 -27 0 -60 -8 -74 -17z"/>
<path d="M1817 4637 c-46 -43 -56 -92 -31 -143 26 -53 66 -79 119 -79 53 0 93
26 119 79 24 50 15 99 -29 143 -29 29 -39 33 -88 33 -49 0 -60 -4 -90 -33z"/>
<path d="M2129 4653 c-85 -52 -75 -191 16 -229 46 -19 73 -18 114 4 80 43 93
149 27 209 -30 28 -43 33 -83 33 -27 0 -60 -8 -74 -17z"/>
<path d="M2404 4637 c-66 -60 -53 -166 27 -209 41 -22 68 -23 114 -4 91 38
101 187 15 231 -16 8 -50 15 -75 15 -37 0 -52 -6 -81 -33z"/>
<path d="M7094 4637 c-107 -98 5 -270 139 -214 93 39 104 187 17 232 -16 8
-50 15 -75 15 -37 0 -52 -6 -81 -33z"/>
<path d="M7698 4654 c-84 -45 -73 -192 17 -230 46 -19 73 -18 114 4 80 43 93
149 27 209 -30 28 -43 33 -83 33 -27 -1 -60 -7 -75 -16z"/>
<path d="M7974 4637 c-66 -60 -53 -166 27 -209 41 -22 68 -23 114 -4 92 39
101 179 15 230 -16 9 -49 16 -74 16 -38 0 -52 -6 -82 -33z"/>
<path d="M8265 4637 c-44 -44 -53 -93 -29 -143 26 -53 66 -79 119 -79 53 0 93
26 119 79 25 51 15 100 -31 143 -30 29 -41 33 -90 33 -49 0 -59 -4 -88 -33z"/>
<path d="M8578 4654 c-57 -30 -79 -131 -40 -183 49 -68 139 -77 198 -20 58 56
58 127 -1 186 -28 28 -40 33 -81 33 -27 -1 -61 -7 -76 -16z"/>
<path d="M8854 4637 c-69 -63 -53 -172 30 -211 42 -20 67 -20 111 -2 92 39
101 179 15 230 -16 9 -49 16 -74 16 -38 0 -52 -6 -82 -33z"/>
<path d="M9145 4637 c-63 -63 -52 -153 25 -205 63 -42 146 -15 183 61 25 50
14 102 -30 145 -30 28 -41 32 -90 32 -49 0 -59 -4 -88 -33z"/>
<path d="M9734 4637 c-31 -28 -37 -41 -41 -83 -5 -60 18 -103 70 -127 43 -21
67 -21 112 -3 92 39 101 179 15 230 -16 9 -49 16 -74 16 -38 0 -52 -6 -82 -33z"/>
<path d="M369 4357 c-41 -27 -59 -60 -59 -107 0 -97 104 -159 191 -115 59 31
86 115 56 175 -18 37 -74 70 -117 70 -22 0 -51 -9 -71 -23z"/>
<path d="M1543 4360 c-81 -49 -82 -170 -1 -220 52 -33 122 -23 165 24 28 31
33 43 33 87 0 46 -4 55 -39 90 -33 33 -45 39 -82 39 -26 0 -57 -8 -76 -20z"/>
<path d="M2715 4360 c-34 -22 -65 -74 -65 -108 0 -39 30 -90 65 -112 66 -41
151 -16 185 54 24 51 25 68 4 112 -32 68 -127 95 -189 54z"/>
<path d="M2989 4341 c-35 -35 -39 -44 -39 -90 0 -44 5 -56 33 -87 43 -47 113
-57 165 -24 59 36 78 118 42 177 -24 41 -67 63 -121 63 -35 0 -48 -6 -80 -39z"/>
<path d="M7113 4361 c-81 -51 -82 -171 -1 -221 52 -33 122 -23 165 24 28 30
33 43 33 86 0 43 -5 56 -33 86 -28 31 -41 37 -83 41 -37 3 -57 -1 -81 -16z"/>
<path d="M7403 4359 c-123 -78 -39 -266 106 -234 42 9 88 60 96 106 18 108
-108 188 -202 128z"/>
<path d="M7993 4361 c-120 -75 -55 -254 86 -238 36 4 52 13 78 41 28 30 33 43
33 86 0 43 -5 56 -33 86 -28 31 -41 37 -83 41 -37 3 -57 -1 -81 -16z"/>
<path d="M8559 4341 c-35 -35 -39 -44 -39 -90 0 -44 5 -56 33 -87 28 -30 42
-37 83 -41 40 -4 55 0 84 19 108 73 54 238 -78 238 -38 0 -50 -5 -83 -39z"/>
<path d="M8873 4360 c-112 -68 -62 -240 70 -240 40 0 96 35 114 70 59 116 -73
238 -184 170z"/>
<path d="M9162 4360 c-34 -21 -62 -71 -62 -111 0 -37 31 -88 67 -110 72 -45
169 -4 195 82 9 32 8 44 -10 81 -37 75 -120 101 -190 58z"/>
<path d="M9446 4349 c-91 -79 -48 -215 71 -226 64 -6 112 25 133 85 43 124
-106 227 -204 141z"/>
<path d="M383 4075 c-43 -19 -73 -69 -73 -124 0 -37 6 -49 39 -82 35 -35 44
-39 90 -39 44 0 56 5 87 33 31 28 37 41 41 83 5 61 -21 108 -72 130 -43 17
-71 17 -112 -1z"/>
<path d="M959 4067 c-45 -29 -72 -85 -64 -130 14 -73 90 -123 162 -106 96 21
135 146 65 211 -58 54 -108 62 -163 25z"/>
<path d="M1263 4075 c-43 -19 -73 -69 -73 -124 0 -37 6 -49 39 -82 35 -35 44
-39 90 -39 44 0 56 5 87 33 31 28 37 41 41 83 5 60 -18 103 -70 127 -42 20
-71 21 -114 2z"/>
<path d="M1551 4072 c-65 -35 -89 -118 -51 -179 26 -43 61 -64 108 -65 142 -2
186 194 56 248 -45 19 -73 18 -113 -4z"/>
<path d="M1839 4067 c-97 -64 -83 -194 25 -231 77 -26 157 20 172 99 13 69
-59 155 -131 155 -18 0 -47 -10 -66 -23z"/>
<path d="M2145 4076 c-45 -20 -67 -50 -73 -102 -9 -84 47 -147 130 -146 47 1
82 22 108 65 38 61 14 145 -50 179 -41 21 -73 22 -115 4z"/>
<path d="M2431 4072 c-65 -35 -89 -118 -51 -179 26 -43 61 -64 108 -65 83 -1
139 62 130 146 -6 53 -28 82 -75 102 -43 19 -72 18 -112 -4z"/>
<path d="M2719 4067 c-97 -64 -83 -194 25 -231 122 -42 224 98 145 198 -45 58
-113 71 -170 33z"/>
<path d="M3024 4076 c-94 -41 -101 -178 -12 -231 37 -21 101 -22 134 0 34 22
64 74 64 110 0 44 -31 96 -71 117 -40 21 -72 22 -115 4z"/>
<path d="M7409 4067 c-97 -64 -83 -194 25 -231 122 -42 224 98 145 198 -45 58
-113 71 -170 33z"/>
<path d="M7715 4076 c-45 -20 -67 -50 -73 -102 -9 -84 47 -147 130 -146 47 1
82 22 108 65 38 61 14 144 -51 179 -39 21 -72 22 -114 4z"/>
<path d="M8883 4075 c-49 -21 -75 -69 -70 -129 4 -42 10 -55 41 -83 31 -28 43
-33 87 -33 46 0 55 4 90 39 33 33 39 45 39 82 0 56 -30 106 -75 125 -43 17
-71 17 -112 -1z"/>
<path d="M9763 4075 c-49 -21 -75 -69 -70 -129 4 -42 10 -55 41 -83 31 -28 43
-33 87 -33 46 0 55 4 90 39 33 33 39 45 39 82 0 56 -30 106 -75 125 -43 17
-71 17 -112 -1z"/>
<path d="M369 3773 c-84 -52 -76 -184 14 -226 44 -21 70 -21 113 -1 91 43 99
177 14 228 -36 20 -107 20 -141 -1z"/>
<path d="M656 3769 c-88 -69 -63 -198 45 -230 132 -40 221 141 112 228 -38 31
-119 32 -157 2z"/>
<path d="M936 3758 c-84 -84 -29 -223 89 -223 53 0 93 26 119 79 24 50 15 99
-29 143 -30 30 -39 33 -90 33 -51 0 -60 -3 -89 -32z"/>
<path d="M1249 3773 c-85 -52 -75 -191 16 -229 46 -19 73 -18 114 4 80 43 93
149 27 209 -30 28 -43 33 -83 33 -27 0 -60 -8 -74 -17z"/>
<path d="M3008 3774 c-85 -46 -73 -192 19 -231 53 -21 100 -11 143 32 32 32
35 41 35 91 0 51 -3 58 -37 90 -32 29 -45 34 -85 34 -27 -1 -60 -7 -75 -16z"/>
<path d="M7698 3774 c-85 -46 -73 -192 19 -231 134 -56 246 116 139 214 -30
28 -43 33 -83 33 -27 -1 -60 -7 -75 -16z"/>
<path d="M7974 3757 c-107 -98 5 -270 139 -214 93 39 104 187 17 232 -16 8
-50 15 -75 15 -37 0 -52 -6 -81 -33z"/>
<path d="M8265 3757 c-44 -44 -53 -93 -29 -143 26 -53 66 -79 119 -79 53 0 93
26 119 79 24 50 15 99 -29 143 -30 30 -39 33 -90 33 -51 0 -60 -3 -90 -33z"/>
<path d="M8578 3774 c-70 -38 -80 -155 -17 -208 59 -50 128 -44 185 15 25 26
29 38 29 85 0 51 -3 58 -37 90 -32 29 -45 34 -85 34 -27 -1 -60 -7 -75 -16z"/>
<path d="M9151 3765 c-57 -49 -63 -127 -15 -185 90 -107 260 -14 223 122 -22
83 -141 119 -208 63z"/>
<path d="M354 3467 c-112 -102 12 -281 147 -212 59 31 86 115 56 175 -20 39
-74 70 -124 70 -35 0 -50 -6 -79 -33z"/>
<path d="M957 3481 c-78 -51 -84 -145 -14 -210 57 -52 161 -31 199 40 22 41
23 68 4 114 -28 67 -128 97 -189 56z"/>
<path d="M1229 3461 c-34 -33 -39 -45 -39 -82 0 -56 16 -87 59 -116 61 -41
143 -23 181 40 55 90 -11 197 -121 197 -35 0 -48 -6 -80 -39z"/>
<path d="M1833 3479 c-70 -45 -79 -131 -20 -195 98 -107 269 5 214 139 -30 71
-127 99 -194 56z"/>
<path d="M2109 3461 c-35 -35 -39 -44 -39 -88 0 -134 171 -183 240 -70 55 90
-11 197 -121 197 -35 0 -48 -6 -80 -39z"/>
<path d="M2423 3480 c-61 -37 -81 -116 -43 -177 69 -113 240 -64 240 70 0 44
-4 53 -39 88 -33 33 -45 39 -82 39 -26 0 -57 -8 -76 -20z"/>
<path d="M2714 3481 c-17 -10 -38 -35 -48 -55 -63 -133 116 -251 213 -141 40
45 48 92 25 140 -33 70 -123 97 -190 56z"/>
<path d="M2989 3461 c-35 -35 -39 -44 -39 -88 0 -56 22 -93 70 -118 114 -59
237 72 170 182 -24 41 -67 63 -121 63 -35 0 -48 -6 -80 -39z"/>
<path d="M7404 3481 c-41 -25 -68 -82 -59 -128 3 -19 21 -50 38 -69 62 -68
166 -53 207 30 24 51 25 68 3 113 -32 68 -123 94 -189 54z"/>
<path d="M7993 3480 c-61 -37 -81 -116 -43 -177 69 -113 240 -64 240 70 0 44
-4 53 -39 88 -33 33 -45 39 -82 39 -26 0 -57 -8 -76 -20z"/>
<path d="M8282 3480 c-86 -53 -76 -180 17 -226 115 -56 238 85 165 190 -39 56
-122 72 -182 36z"/>
<path d="M8559 3461 c-35 -35 -39 -44 -39 -90 0 -44 5 -56 33 -87 43 -47 113
-57 165 -24 59 36 78 118 42 177 -24 41 -67 63 -121 63 -35 0 -48 -6 -80 -39z"/>
<path d="M8873 3480 c-112 -68 -62 -240 70 -240 40 0 96 35 114 70 7 14 13 45
13 69 0 37 -5 49 -39 82 -33 33 -45 39 -82 39 -26 0 -57 -8 -76 -20z"/>
<path d="M9749 3477 c-139 -93 -5 -304 138 -217 45 27 66 73 60 129 -11 96
-117 143 -198 88z"/>
<path d="M383 3195 c-43 -19 -73 -69 -73 -124 0 -37 6 -49 39 -82 35 -35 44
-39 90 -39 44 0 56 5 87 33 31 28 37 41 41 83 5 61 -21 108 -72 130 -43 17
-71 17 -112 -1z"/>
<path d="M960 3188 c-67 -45 -84 -121 -43 -185 53 -80 192 -66 230 24 48 115
-85 230 -187 161z"/>
<path d="M1551 3192 c-62 -33 -87 -111 -56 -172 24 -46 62 -70 112 -70 82 0
133 51 133 133 0 98 -101 156 -189 109z"/>
<path d="M1843 3190 c-118 -71 -74 -240 62 -240 110 0 170 120 104 204 -44 56
-110 70 -166 36z"/>
<path d="M2723 3190 c-118 -72 -75 -240 62 -240 110 0 170 120 104 204 -44 56
-110 70 -166 36z"/>
<path d="M3014 3191 c-46 -28 -64 -59 -64 -109 0 -81 51 -132 133 -132 98 0
156 101 109 189 -35 65 -118 89 -178 52z"/>
<path d="M3313 3195 c-49 -21 -75 -69 -70 -129 4 -42 10 -55 41 -83 31 -28 43
-33 87 -33 46 0 55 4 90 39 34 33 39 45 39 82 0 56 -16 87 -59 116 -38 26 -81
29 -128 8z"/>
<path d="M3615 3200 c-34 -14 -76 -65 -81 -101 -13 -77 50 -149 129 -149 135
0 182 161 68 237 -34 23 -80 28 -116 13z"/>
<path d="M3893 3190 c-43 -26 -64 -61 -65 -108 -2 -139 183 -185 247 -62 31
61 6 139 -56 172 -44 23 -86 23 -126 -2z"/>
<path d="M4193 3195 c-49 -21 -75 -69 -70 -129 4 -42 10 -55 41 -83 31 -28 43
-33 87 -33 46 0 55 4 90 39 33 33 39 45 39 82 0 56 -30 106 -75 125 -43 17
-71 17 -112 -1z"/>
<path d="M4495 3201 c-34 -14 -74 -62 -81 -96 -14 -76 35 -144 110 -152 87
-10 149 41 149 123 0 92 -95 159 -178 125z"/>
<path d="M4773 3190 c-42 -25 -65 -61 -66 -103 -2 -86 58 -143 144 -135 55 6
85 27 105 75 19 43 18 72 -4 112 -35 65 -118 89 -179 51z"/>
<path d="M5650 3188 c-67 -45 -84 -121 -43 -185 53 -80 192 -66 230 24 48 115
-85 230 -187 161z"/>
<path d="M6819 3187 c-43 -29 -59 -60 -59 -116 0 -37 5 -49 39 -82 35 -35 44
-39 88 -39 56 0 93 22 118 70 60 117 -77 240 -186 167z"/>
<path d="M8293 3190 c-118 -72 -75 -240 62 -240 109 0 170 120 104 204 -44 56
-110 70 -166 36z"/>
<path d="M8883 3195 c-49 -21 -75 -69 -70 -129 4 -42 10 -55 41 -83 31 -28 43
-33 87 -33 46 0 55 4 90 39 33 33 39 45 39 82 0 105 -92 165 -187 124z"/>
<path d="M9185 3200 c-34 -14 -76 -65 -81 -101 -13 -77 50 -149 129 -149 135
0 182 161 68 237 -34 23 -80 28 -116 13z"/>
<path d="M9463 3190 c-43 -26 -66 -63 -66 -109 0 -82 64 -138 147 -129 53 6
82 28 102 75 19 43 18 72 -4 112 -35 65 -118 89 -179 51z"/>
<path d="M9763 3195 c-49 -21 -75 -69 -70 -129 4 -42 10 -55 41 -83 30 -28 43
-33 86 -33 43 0 56 5 86 33 31 28 37 41 41 83 5 61 -21 108 -72 130 -43 17
-71 17 -112 -1z"/>
<path d="M395 2904 c-22 -7 -41 -14 -42 -14 -1 0 -11 -15 -22 -34 -53 -86 10
-206 109 -206 37 0 89 30 110 65 66 106 -37 231 -155 189z"/>
<path d="M696 2909 c-53 -15 -96 -72 -96 -127 0 -70 87 -140 157 -127 47 9
103 63 104 102 3 75 -7 102 -48 131 -35 24 -79 32 -117 21z"/>
<path d="M1289 2910 c-68 -20 -99 -60 -99 -127 0 -111 133 -171 214 -96 47 43
58 99 31 157 -24 50 -93 82 -146 66z"/>
<path d="M1575 2909 c-17 -5 -44 -22 -60 -39 -26 -27 -30 -39 -30 -86 0 -51 3
-58 37 -89 47 -44 95 -53 145 -29 143 71 62 286 -92 243z"/>
<path d="M1872 2910 c-94 -22 -129 -134 -65 -210 95 -113 282 5 217 136 -31
62 -86 89 -152 74z"/>
<path d="M2171 2912 c-120 -21 -138 -201 -24 -248 49 -21 96 -11 141 31 34 31
37 38 37 88 0 45 -5 60 -25 82 -38 41 -80 56 -129 47z"/>
<path d="M2455 2909 c-17 -5 -44 -22 -60 -39 -26 -27 -30 -39 -30 -86 0 -51 3
-58 37 -89 45 -42 92 -52 141 -31 67 27 97 118 63 185 -27 51 -91 77 -151 60z"/>
<path d="M2750 2909 c-75 -16 -118 -106 -84 -175 26 -53 66 -79 119 -79 53 0
93 26 119 79 47 96 -42 199 -154 175z"/>
<path d="M3335 2909 c-112 -32 -126 -188 -21 -239 51 -24 68 -25 113 -3 66 31
93 116 58 183 -25 47 -95 75 -150 59z"/>
<path d="M4506 2909 c-98 -28 -124 -157 -45 -223 85 -72 212 -13 212 98 0 90
-80 150 -167 125z"/>
<path d="M4802 2910 c-100 -23 -131 -157 -51 -224 62 -53 149 -38 196 33 65
97 -28 218 -145 191z"/>
<path d="M5095 2909 c-85 -26 -121 -119 -75 -194 21 -35 73 -65 110 -65 66 0
130 66 130 135 0 85 -84 148 -165 124z"/>
<path d="M5979 2910 c-68 -20 -99 -60 -99 -127 0 -111 133 -171 214 -96 47 43
58 99 31 157 -24 50 -93 82 -146 66z"/>
<path d="M6562 2910 c-94 -22 -129 -134 -65 -210 95 -113 282 5 217 136 -31
62 -86 89 -152 74z"/>
<path d="M7440 2909 c-75 -16 -118 -106 -84 -175 26 -53 66 -79 119 -79 53 0
93 26 119 79 47 96 -42 199 -154 175z"/>
<path d="M7741 2912 c-120 -21 -138 -201 -24 -248 49 -21 96 -11 141 31 34 31
37 38 37 88 0 45 -5 60 -25 82 -38 41 -80 56 -129 47z"/>
<path d="M8025 2909 c-17 -5 -44 -22 -60 -39 -26 -27 -30 -39 -30 -86 0 -51 3
-58 37 -89 47 -43 94 -53 143 -29 68 32 95 116 60 184 -25 47 -95 75 -150 59z"/>
<path d="M8316 2909 c-61 -17 -104 -88 -91 -149 10 -44 51 -88 94 -101 105
-31 203 81 155 177 -31 62 -94 91 -158 73z"/>
<path d="M8620 2913 c-63 -9 -117 -94 -99 -156 13 -48 38 -78 76 -94 49 -20
96 -9 141 32 34 31 37 38 37 88 0 45 -5 60 -25 82 -38 41 -78 55 -130 48z"/>
<path d="M8904 2909 c-95 -27 -124 -148 -52 -218 106 -104 272 26 203 159 -25
48 -95 75 -151 59z"/>
<path d="M9785 2909 c-86 -26 -121 -119 -75 -194 21 -35 73 -65 110 -65 66 0
130 66 130 135 0 85 -84 148 -165 124z"/>
<path d="M2712 2600 c-41 -25 -66 -81 -57 -127 3 -19 21 -51 40 -71 31 -34 38
-37 90 -37 52 0 59 3 90 37 43 47 53 94 29 143 -33 71 -123 97 -192 55z"/>
<path d="M3296 2599 c-14 -11 -33 -34 -41 -49 -60 -117 77 -240 186 -167 43
29 59 60 59 116 0 37 -5 49 -39 82 -35 35 -44 39 -88 39 -36 0 -58 -6 -77 -21z"/>
<path d="M3592 2600 c-86 -53 -76 -180 17 -226 118 -57 236 83 163 194 -34 53
-121 68 -180 32z"/>
<path d="M4770 2603 c-76 -52 -85 -145 -21 -207 60 -57 163 -39 203 35 22 41
23 68 4 114 -28 66 -129 97 -186 58z"/>
<path d="M5044 2587 c-87 -80 -32 -227 86 -227 118 0 173 147 86 227 -30 28
-43 33 -86 33 -43 0 -56 -5 -86 -33z"/>
<path d="M5647 2601 c-78 -51 -84 -145 -14 -210 57 -52 161 -31 199 40 22 41
23 68 4 114 -28 67 -128 97 -189 56z"/>
<path d="M7113 2600 c-58 -35 -77 -98 -49 -165 37 -88 162 -99 225 -19 26 33
28 104 5 144 -35 59 -119 78 -181 40z"/>
<path d="M7402 2600 c-41 -25 -66 -81 -57 -127 3 -19 21 -51 40 -71 31 -34 38
-37 90 -37 52 0 59 3 90 37 19 20 37 52 40 71 14 75 -49 147 -130 147 -23 0
-54 -9 -73 -20z"/>
<path d="M8579 2603 c-85 -52 -78 -182 11 -228 113 -58 236 74 170 182 -36 59
-124 82 -181 46z"/>
<path d="M684 2325 c-134 -36 -267 -138 -326 -251 -57 -107 -58 -116 -58 -759
0 -515 2 -598 16 -646 51 -171 183 -303 353 -353 80 -23 1206 -24 1296 -1 176
46 327 204 364 383 7 35 11 246 11 625 0 478 -2 582 -15 631 -48 183 -188 323
-370 371 -83 21 -1192 21 -1271 0z m1128 -293 c110 -44 186 -124 225 -236 16
-46 18 -93 18 -481 0 -429 0 -430 -24 -488 -50 -125 -157 -213 -290 -237 -74
-14 -772 -13 -846 1 -161 30 -280 149 -305 306 -14 81 -13 775 1 848 29 157
148 278 300 304 30 5 236 8 459 7 395 -1 406 -2 462 -24z"/>
<path d="M1075 1754 c-90 -22 -133 -53 -168 -118 -21 -39 -22 -52 -22 -316 0
-265 1 -277 22 -317 31 -56 86 -100 145 -113 60 -12 478 -13 532 0 61 14 118
59 146 115 24 48 25 58 28 275 2 136 -1 249 -7 285 -15 79 -53 133 -116 165
-49 24 -55 25 -295 27 -135 1 -254 -1 -265 -3z"/>
<path d="M2734 2321 c-31 -14 -72 -68 -79 -105 -27 -143 186 -204 249 -71 23
49 14 96 -27 142 -26 28 -42 36 -77 39 -25 2 -54 0 -66 -5z"/>
<path d="M3303 2310 c-113 -69 -64 -240 70 -240 44 0 53 4 88 39 34 33 39 45
39 82 0 56 -16 87 -59 116 -42 28 -95 30 -138 3z"/>
<path d="M3605 2314 c-122 -61 -79 -244 58 -244 135 0 182 161 68 237 -39 27
-83 29 -126 7z"/>
<path d="M4183 2310 c-75 -45 -84 -148 -19 -207 30 -28 43 -33 86 -33 43 0 56
5 86 33 87 80 32 227 -86 227 -19 0 -49 -9 -67 -20z"/>
<path d="M4481 2312 c-37 -20 -71 -73 -71 -110 0 -141 202 -182 254 -51 46
113 -75 219 -183 161z"/>
<path d="M4773 2310 c-64 -39 -85 -115 -48 -177 52 -88 192 -81 231 12 19 46
18 73 -4 114 -35 65 -118 89 -179 51z"/>
<path d="M5361 2312 c-37 -20 -71 -73 -71 -110 0 -131 179 -182 245 -69 37 62
16 138 -48 177 -40 25 -82 25 -126 2z"/>
<path d="M5943 2310 c-41 -24 -63 -67 -63 -121 0 -35 6 -48 39 -80 35 -35 44
-39 90 -39 44 0 56 5 87 33 87 80 32 227 -86 227 -19 0 -49 -9 -67 -20z"/>
<path d="M6260 2323 c-93 -35 -118 -155 -46 -222 34 -32 108 -40 151 -17 62
33 87 126 50 182 -32 50 -104 76 -155 57z"/>
<path d="M6530 2308 c-67 -45 -84 -121 -43 -185 53 -80 192 -66 230 24 48 115
-85 230 -187 161z"/>
<path d="M6819 2307 c-43 -29 -59 -60 -59 -116 0 -37 5 -49 39 -82 35 -35 44
-39 88 -39 56 0 93 22 118 70 61 118 -77 241 -186 167z"/>
<path d="M7424 2321 c-32 -14 -72 -68 -80 -105 -8 -44 19 -102 60 -127 67 -41
157 -14 190 56 23 49 14 96 -27 142 -26 28 -42 36 -77 39 -25 2 -54 0 -66 -5z"/>
<path d="M8003 2315 c-63 -27 -91 -112 -58 -175 25 -48 62 -70 118 -70 44 0
53 4 88 39 35 35 39 44 39 88 0 101 -92 159 -187 118z"/>
<path d="M8584 2311 c-47 -29 -64 -59 -64 -114 0 -44 4 -54 39 -88 33 -34 45
-39 82 -39 56 0 87 16 116 59 75 111 -60 251 -173 182z"/>
<path d="M8873 2310 c-75 -45 -84 -148 -19 -207 31 -28 43 -33 87 -33 46 0 55
4 90 39 34 33 39 45 39 82 0 56 -16 87 -59 116 -42 28 -95 30 -138 3z"/>
<path d="M9171 2312 c-37 -20 -71 -73 -71 -110 0 -70 62 -132 133 -132 135 0
182 161 68 237 -41 28 -85 29 -130 5z"/>
<path d="M3914 2029 c-67 -19 -102 -94 -78 -165 37 -109 166 -122 232 -24 47
70 7 166 -77 190 -41 11 -36 11 -77 -1z"/>
<path d="M4195 2020 c-101 -50 -100 -182 1 -230 88 -43 184 16 184 113 0 102
-96 163 -185 117z"/>
<path d="M4796 2030 c-129 -39 -115 -231 19 -256 69 -13 155 59 155 130 0 83
-93 150 -174 126z"/>
<path d="M5386 2030 c-53 -17 -96 -73 -96 -128 0 -40 38 -94 83 -116 51 -24
100 -15 144 29 32 32 39 56 34 115 -6 71 -91 122 -165 100z"/>
<path d="M6265 2029 c-81 -23 -119 -122 -73 -189 31 -46 88 -74 133 -66 132
25 144 220 16 256 -41 11 -36 11 -76 -1z"/>
<path d="M7145 2029 c-17 -4 -44 -22 -60 -39 -26 -27 -30 -39 -30 -86 0 -51 3
-58 37 -89 47 -43 94 -53 143 -29 47 22 75 67 75 119 0 90 -79 150 -165 124z"/>
<path d="M7436 2030 c-90 -28 -121 -136 -59 -210 95 -113 282 5 217 136 -32
63 -95 93 -158 74z"/>
<path d="M8604 2029 c-109 -32 -114 -201 -7 -246 49 -20 96 -9 141 32 34 31
37 38 37 89 0 47 -4 59 -29 85 -17 17 -46 36 -65 41 -41 11 -36 11 -77 -1z"/>
<path d="M9196 2030 c-98 -30 -124 -158 -45 -224 85 -72 212 -13 212 98 0 90
-81 152 -167 126z"/>
<path d="M9484 2029 c-88 -26 -117 -143 -50 -213 60 -65 152 -54 204 24 47 70
7 166 -77 190 -41 11 -36 11 -77 -1z"/>
<path d="M2712 1720 c-41 -25 -66 -81 -57 -127 3 -19 21 -51 40 -71 31 -34 38
-37 90 -37 52 0 59 3 90 37 19 20 37 52 40 71 14 75 -49 147 -130 147 -23 0
-54 -9 -73 -20z"/>
<path d="M3592 1720 c-71 -44 -79 -138 -17 -200 32 -31 41 -35 89 -35 44 0 60
5 81 25 55 51 66 119 27 178 -34 53 -121 68 -180 32z"/>
<path d="M3889 1723 c-37 -23 -61 -68 -61 -115 1 -47 22 -82 65 -108 107 -66
240 58 182 170 -33 65 -125 91 -186 53z"/>
<path d="M4164 1707 c-30 -28 -37 -42 -41 -83 -4 -40 0 -55 19 -84 73 -108
238 -54 238 78 0 38 -5 50 -39 83 -35 35 -44 39 -90 39 -44 0 -56 -5 -87 -33z"/>
<path d="M4764 1720 c-55 -35 -74 -122 -39 -176 22 -34 74 -64 110 -64 65 0
135 66 135 128 0 38 -26 88 -58 111 -39 27 -106 28 -148 1z"/>
<path d="M5044 1707 c-30 -28 -37 -42 -41 -83 -6 -65 24 -113 85 -134 37 -13
47 -13 84 0 61 21 91 69 85 134 -4 41 -11 55 -41 83 -30 28 -43 33 -86 33 -43
0 -56 -5 -86 -33z"/>
<path d="M5346 1718 c-31 -23 -56 -73 -56 -110 0 -62 70 -128 135 -128 36 0
88 30 110 64 36 54 16 142 -40 176 -44 27 -111 26 -149 -2z"/>
<path d="M5649 1725 c-57 -31 -81 -108 -52 -165 44 -86 143 -104 210 -38 41
41 51 89 30 141 -28 67 -122 98 -188 62z"/>
<path d="M5919 1701 c-34 -33 -39 -45 -39 -83 0 -61 33 -108 88 -128 37 -13
47 -13 84 0 61 21 91 69 85 134 -4 41 -11 55 -41 83 -31 28 -43 33 -87 33 -46
0 -55 -4 -90 -39z"/>
<path d="M6524 1721 c-41 -25 -68 -82 -59 -128 3 -19 21 -51 40 -71 31 -34 38
-37 90 -37 52 0 59 3 90 37 42 45 52 92 31 141 -29 70 -125 99 -192 58z"/>
<path d="M7095 1707 c-57 -57 -59 -132 -4 -186 54 -55 129 -53 186 4 28 28 33
40 33 80 0 85 -50 135 -135 135 -40 0 -52 -5 -80 -33z"/>
<path d="M7402 1720 c-41 -25 -66 -81 -57 -127 3 -19 21 -51 40 -71 31 -34 38
-37 90 -37 52 0 59 3 90 37 19 20 37 52 40 71 14 75 -49 147 -130 147 -23 0
-54 -9 -73 -20z"/>
<path d="M7699 1723 c-39 -24 -59 -65 -59 -118 0 -40 5 -52 33 -80 57 -57 132
-59 186 -4 55 54 53 129 -4 186 -28 28 -40 33 -81 33 -27 0 -61 -8 -75 -17z"/>
<path d="M7975 1707 c-19 -19 -37 -46 -41 -60 -17 -71 31 -149 99 -162 49 -9
81 0 119 34 26 23 32 36 36 84 4 55 3 58 -36 97 -36 36 -44 40 -92 40 -46 0
-56 -4 -85 -33z"/>
<path d="M8282 1720 c-41 -25 -66 -81 -57 -127 3 -19 21 -51 40 -71 31 -34 38
-37 90 -37 52 0 59 3 90 37 19 20 37 52 40 71 14 75 -49 147 -130 147 -23 0
-54 -9 -73 -20z"/>
<path d="M8579 1723 c-39 -24 -59 -65 -59 -118 0 -40 5 -52 33 -80 57 -57 132
-59 186 -4 56 55 53 131 -5 186 -30 28 -43 33 -82 33 -26 0 -59 -8 -73 -17z"/>
<path d="M9454 1720 c-55 -35 -74 -122 -39 -176 22 -34 74 -64 110 -64 65 0
135 66 135 128 0 38 -26 88 -58 111 -39 27 -106 28 -148 1z"/>
<path d="M2725 1435 c-65 -34 -90 -106 -59 -170 47 -100 191 -100 238 0 23 49
14 96 -27 142 -39 42 -103 54 -152 28z"/>
<path d="M3303 1430 c-63 -38 -81 -120 -40 -181 29 -43 60 -59 116 -59 37 0
49 5 82 39 34 33 39 45 39 82 0 56 -16 87 -59 116 -42 28 -95 30 -138 3z"/>
<path d="M3893 1430 c-51 -31 -68 -66 -64 -139 1 -13 18 -41 40 -62 33 -34 45
-39 83 -39 61 0 108 33 128 88 13 37 13 47 0 84 -28 79 -117 111 -187 68z"/>
<path d="M4183 1430 c-63 -38 -81 -120 -40 -181 28 -42 60 -59 115 -59 34 0
49 6 78 33 31 28 37 41 41 83 5 59 -10 90 -56 121 -42 28 -95 30 -138 3z"/>
<path d="M4481 1432 c-37 -20 -71 -73 -71 -110 0 -70 62 -132 133 -132 53 0
94 27 119 78 18 37 19 49 10 81 -26 84 -118 124 -191 83z"/>
<path d="M5355 1430 c-34 -22 -65 -74 -65 -108 0 -40 28 -91 62 -112 90 -54
201 7 201 111 0 98 -117 162 -198 109z"/>
<path d="M5664 1440 c-30 -12 -71 -64 -79 -100 -9 -40 25 -110 64 -133 85 -50
201 16 201 115 0 84 -105 151 -186 118z"/>
<path d="M6229 1427 c-107 -72 -53 -237 79 -237 38 0 50 5 83 39 35 35 39 44
39 88 0 108 -113 169 -201 110z"/>
<path d="M6545 1440 c-72 -29 -103 -131 -59 -194 56 -81 192 -70 230 19 19 46
18 73 -4 114 -31 57 -108 86 -167 61z"/>
<path d="M7424 1440 c-31 -12 -72 -66 -80 -104 -4 -23 0 -46 12 -71 47 -100
191 -100 238 -1 50 106 -61 220 -170 176z"/>
<path d="M7704 1431 c-47 -29 -64 -59 -64 -114 0 -44 4 -54 39 -88 32 -33 45
-39 80 -39 54 0 97 22 121 63 70 114 -63 247 -176 178z"/>
<path d="M8291 1432 c-37 -20 -71 -73 -71 -110 0 -38 31 -93 64 -113 58 -35
142 -18 180 37 76 109 -57 251 -173 186z"/>
<path d="M9171 1432 c-37 -20 -71 -73 -71 -110 0 -70 62 -132 133 -132 53 0
94 27 119 78 18 37 19 49 10 81 -26 84 -118 124 -191 83z"/>
<path d="M9465 1432 c-39 -24 -54 -43 -65 -81 -21 -75 44 -161 124 -161 59 0
107 33 126 88 13 37 13 47 0 84 -27 78 -117 111 -185 70z"/>
<path d="M3030 1147 c-68 -23 -101 -118 -66 -186 29 -55 101 -82 157 -58 110
47 119 186 15 237 -48 23 -58 23 -106 7z"/>
<path d="M3914 1149 c-67 -19 -102 -94 -78 -165 26 -75 104 -110 172 -77 109
53 106 192 -5 239 -36 16 -45 16 -89 3z"/>
<path d="M4220 1154 c-41 -15 -63 -31 -82 -62 -44 -71 -2 -168 83 -194 32 -9
44 -8 81 10 121 59 98 225 -33 246 -19 3 -41 3 -49 0z"/>
<path d="M4490 1142 c-51 -25 -83 -78 -77 -126 10 -77 82 -133 152 -120 133
25 149 205 22 253 -39 15 -56 14 -97 -7z"/>
<path d="M5380 1149 c-14 -5 -37 -22 -52 -36 -93 -89 4 -247 131 -213 105 28
128 175 37 235 -31 21 -85 27 -116 14z"/>
<path d="M5975 1153 c-57 -15 -95 -67 -95 -128 0 -52 27 -92 78 -117 37 -18
49 -19 81 -10 85 26 127 123 83 194 -12 18 -30 38 -40 45 -24 14 -80 23 -107
16z"/>
<path d="M6840 1147 c-46 -16 -80 -68 -80 -121 0 -92 91 -157 171 -123 110 47
119 186 15 237 -48 23 -58 23 -106 7z"/>
<path d="M7123 1140 c-74 -38 -96 -138 -41 -197 86 -94 228 -42 228 84 0 100
-96 158 -187 113z"/>
<path d="M8604 1149 c-65 -19 -102 -95 -78 -165 26 -75 104 -110 172 -77 109
53 106 192 -5 239 -36 16 -45 16 -89 3z"/>
<path d="M8885 1142 c-108 -50 -94 -204 22 -243 76 -25 163 42 163 125 0 100
-94 160 -185 118z"/>
<path d="M9181 1143 c-104 -54 -103 -184 2 -236 104 -52 222 66 170 170 -35
71 -109 99 -172 66z"/>
<path d="M9475 1146 c-65 -29 -92 -94 -69 -162 37 -108 167 -121 232 -24 45
66 14 152 -65 186 -40 17 -59 17 -98 0z"/>
<path d="M9785 1153 c-58 -16 -95 -67 -95 -132 0 -51 45 -106 100 -122 75 -23
160 44 160 126 0 44 -21 87 -53 108 -27 18 -83 28 -112 20z"/>
<path d="M3009 843 c-38 -23 -59 -65 -59 -116 0 -112 139 -167 219 -86 55 54
53 129 -4 186 -28 28 -40 33 -81 33 -27 0 -61 -8 -75 -17z"/>
<path d="M3284 827 c-31 -28 -37 -41 -41 -83 -5 -60 18 -103 70 -127 43 -21
67 -21 112 -3 92 39 101 179 15 230 -16 9 -49 16 -74 16 -38 0 -52 -6 -82 -33z"/>
<path d="M3583 835 c-64 -51 -66 -140 -4 -199 98 -94 260 21 207 147 -31 75
-139 102 -203 52z"/>
<path d="M5039 821 c-34 -33 -39 -45 -39 -83 0 -61 33 -108 88 -128 37 -13 47
-13 84 0 61 21 91 69 85 134 -4 41 -11 55 -41 83 -31 28 -43 33 -87 33 -46 0
-55 -4 -90 -39z"/>
<path d="M5649 845 c-38 -21 -62 -64 -62 -111 0 -118 135 -175 219 -93 59 57
54 145 -10 194 -38 29 -104 33 -147 10z"/>
<path d="M6215 827 c-57 -57 -59 -132 -4 -186 88 -89 233 -16 220 109 -8 67
-61 110 -136 110 -40 0 -52 -5 -80 -33z"/>
<path d="M6819 843 c-86 -53 -75 -191 18 -230 136 -56 248 119 137 216 -28 25
-43 31 -82 31 -26 0 -59 -8 -73 -17z"/>
<path d="M7698 843 c-42 -26 -62 -72 -56 -127 13 -109 140 -153 217 -75 55 54
53 129 -4 186 -28 28 -40 33 -81 33 -28 0 -61 -8 -76 -17z"/>
<path d="M7974 827 c-66 -60 -53 -166 27 -209 41 -22 68 -23 114 -4 92 39 101
179 15 230 -16 9 -49 16 -74 16 -38 0 -52 -6 -82 -33z"/>
<path d="M9153 834 c-36 -28 -59 -88 -49 -128 10 -41 63 -95 102 -102 100 -19
184 75 152 171 -27 81 -137 113 -205 59z"/>
<path d="M9458 844 c-56 -30 -79 -126 -44 -179 23 -35 74 -65 111 -65 65 0
135 66 135 128 0 36 -25 87 -55 110 -33 26 -105 29 -147 6z"/>
<path d="M9734 827 c-30 -28 -37 -42 -41 -83 -4 -40 0 -55 19 -84 73 -108 238
-54 238 78 0 38 -5 50 -39 83 -35 35 -44 39 -90 39 -44 0 -56 -5 -87 -33z"/>
<path d="M3014 551 c-47 -29 -64 -59 -64 -113 0 -129 173 -176 240 -65 69 113
-63 247 -176 178z"/>
<path d="M3904 560 c-11 -4 -33 -22 -47 -40 -22 -25 -27 -42 -27 -82 0 -45 4
-54 39 -89 33 -34 45 -39 83 -39 61 0 108 33 128 88 13 37 13 47 0 84 -25 71
-105 107 -176 78z"/>
<path d="M4475 551 c-34 -23 -65 -75 -65 -109 0 -70 62 -132 133 -132 53 0 94
27 119 78 18 37 19 49 10 81 -26 85 -129 128 -197 82z"/>
<path d="M4785 560 c-30 -12 -64 -53 -74 -88 -22 -76 43 -162 123 -162 59 0
107 33 126 88 13 37 13 47 0 84 -25 71 -106 107 -175 78z"/>
<path d="M5059 547 c-46 -31 -61 -62 -56 -120 3 -38 11 -56 36 -80 28 -29 37
-32 91 -32 53 0 63 3 91 31 109 110 -34 288 -162 201z"/>
<path d="M5664 560 c-30 -12 -71 -64 -79 -100 -9 -40 25 -110 64 -133 85 -50
201 16 201 114 0 87 -103 153 -186 119z"/>
<path d="M7113 550 c-120 -73 -55 -253 86 -237 36 4 52 13 78 41 100 109 -37
274 -164 196z"/>
<path d="M7407 551 c-112 -73 -65 -241 68 -241 69 0 135 64 135 130 0 37 -30
89 -65 110 -40 25 -101 26 -138 1z"/>
<path d="M8584 551 c-47 -29 -64 -59 -64 -114 0 -44 4 -54 39 -88 33 -34 45
-39 83 -39 61 0 108 33 128 88 13 37 13 47 0 84 -28 78 -117 111 -186 69z"/>
<path d="M9165 551 c-34 -24 -65 -75 -65 -109 0 -69 64 -132 133 -132 53 0 94
27 119 78 18 37 19 49 10 81 -26 85 -129 128 -197 82z"/>
</g>
</svg>
